<svg width="1374" height="1931" viewBox="0 0 1374 1931" fill="none" xmlns="http://www.w3.org/2000/svg">
<path fill-rule="evenodd" clip-rule="evenodd" d="M77.0814 537.497C72.6626 534.052 67.1049 532 61.068 532C46.6711 532 35.0001 543.671 35.0001 558.068C35.0001 566.181 38.7067 573.429 44.519 578.21C46.2073 579.616 47.849 580.88 49.4497 582.113C62.9248 592.489 73.4937 600.627 84.5393 672.313C91.38 722.569 134.467 761.297 186.599 761.297C243.488 761.297 289.605 715.179 289.605 658.29C289.605 601.402 243.488 555.284 186.599 555.284C183.764 555.284 180.955 555.399 178.178 555.623C105.37 560.8 95.076 552.282 81.9433 541.414C80.3975 540.135 78.8124 538.823 77.0814 537.497Z" fill="url(#paint0_radial_9_1403)"/>
<g filter="url(#filter0_f_9_1403)">
<path d="M276.951 651.963C285.05 698.531 236.844 734.47 216.716 734.47C196.588 734.47 193.432 689.498 193.432 664.618C207.099 648.42 214.185 634.754 229.877 619.568C254.173 589.198 276.951 627.083 276.951 651.963Z" fill="#D65485" fill-opacity="0.5"/>
</g>
<g filter="url(#filter1_f_9_1403)">
<path d="M149.819 612.757C149.819 634.562 120.387 654.263 98.4422 654.263C76.4974 654.263 85.5348 581.375 60.7323 581.375C24.794 533.288 51.6212 526.708 98.4422 559.103C120.387 559.103 149.819 590.952 149.819 612.757Z" fill="#2454FF" fill-opacity="0.3"/>
</g>
<path fill-rule="evenodd" clip-rule="evenodd" d="M1144.78 1681.96C1142.8 1690.78 1142.38 1700.12 1143.77 1709.61C1149.85 1751.16 1188.48 1779.91 1230.03 1773.83C1271.58 1767.74 1300.34 1729.12 1294.25 1687.56C1288.54 1648.6 1254.22 1620.89 1215.7 1622.61C1161.64 1624.14 1152.13 1599.67 1151.13 1572.45C1151.1 1570.87 1150.97 1569.28 1150.73 1567.68C1147.69 1546.91 1128.38 1532.53 1107.6 1535.57C1086.82 1538.62 1072.45 1557.93 1075.49 1578.71C1077.92 1595.27 1090.68 1607.76 1106.28 1610.61C1132.72 1616.16 1154.99 1629.63 1144.78 1681.96Z" fill="url(#paint1_radial_9_1403)"/>
<g filter="url(#filter2_f_9_1403)">
<ellipse cx="1256.51" cy="1701.27" rx="36.9422" ry="45.1515" fill="#F34B95" fill-opacity="0.5"/>
</g>
<g filter="url(#filter3_f_9_1403)">
<ellipse cx="1100.99" cy="1568.1" rx="24.6281" ry="25.0842" fill="#00C2FF" fill-opacity="0.5"/>
</g>
<path fill-rule="evenodd" clip-rule="evenodd" d="M159.163 1669.01C155.274 1658.22 156.955 1645.71 164.697 1636.15C176.478 1621.58 197.832 1619.33 212.393 1631.11C214.32 1632.67 216.032 1634.4 217.524 1636.26C263.671 1691.4 305.665 1726.91 367.721 1763.26C369.353 1764.18 370.931 1765.25 372.437 1766.47C386.997 1778.25 389.251 1799.6 377.469 1814.16C371.132 1821.99 362.025 1826.27 352.695 1826.71C349.691 1826.86 346.913 1826.99 344.315 1827.11L344.311 1827.11L344.309 1827.11L344.309 1827.11C314.349 1828.51 308.317 1828.79 256.043 1850.65C237.475 1858.85 215.083 1856.62 198.217 1842.97C184.169 1831.61 177.067 1814.84 177.482 1798.07C178.625 1724.74 175.694 1716.36 163.339 1681.03C162.051 1677.35 160.661 1673.38 159.163 1669.01Z" fill="url(#paint2_radial_9_1403)"/>
<path fill-rule="evenodd" clip-rule="evenodd" d="M159.163 1669.01C155.274 1658.22 156.955 1645.71 164.697 1636.15C176.478 1621.58 197.832 1619.33 212.393 1631.11C214.32 1632.67 216.032 1634.4 217.524 1636.26C263.671 1691.4 305.665 1726.91 367.721 1763.26C369.353 1764.18 370.931 1765.25 372.437 1766.47C386.997 1778.25 389.251 1799.6 377.469 1814.16C371.132 1821.99 362.025 1826.27 352.695 1826.71C349.691 1826.86 346.913 1826.99 344.315 1827.11L344.311 1827.11L344.309 1827.11L344.309 1827.11C314.349 1828.51 308.317 1828.79 256.043 1850.65C237.475 1858.85 215.083 1856.62 198.217 1842.97C184.169 1831.61 177.067 1814.84 177.482 1798.07C178.625 1724.74 175.694 1716.36 163.339 1681.03C162.051 1677.35 160.661 1673.38 159.163 1669.01Z" fill="url(#paint3_linear_9_1403)" fill-opacity="0.5"/>
<g filter="url(#filter4_f_9_1403)">
<path d="M282.933 1726.6C271.415 1740.84 298.865 1803.3 317.446 1818.34C336.027 1833.37 362.477 1827.86 373.994 1813.63C385.512 1799.39 388.245 1782.51 369.664 1767.48C329.033 1781.48 293.032 1730.22 282.933 1726.6Z" fill="#F34B95" fill-opacity="0.5"/>
</g>
<g filter="url(#filter5_f_9_1403)">
<path d="M215.176 1722.17C197.194 1725.62 177.895 1791.07 182.402 1814.54C186.91 1838.01 210.677 1850.86 228.659 1847.41C246.641 1843.95 259.617 1832.81 255.109 1809.34C215.023 1793.84 220.564 1731.45 215.176 1722.17Z" fill="#2B2DFF" fill-opacity="0.58"/>
</g>
<g filter="url(#filter6_f_9_1403)">
<path d="M235.827 1696.3C250.282 1685.06 232.238 1658.07 217.566 1639.2C202.893 1620.34 190.953 1620.78 176.498 1632.02C162.044 1643.26 150.614 1653.57 165.287 1672.43C208.039 1668.04 226.816 1690.49 235.827 1696.3Z" fill="#A244F7" fill-opacity="0.37"/>
</g>
<path fill-rule="evenodd" clip-rule="evenodd" d="M1224.28 624.327C1224.6 622.12 1224.77 619.864 1224.77 617.568C1224.77 591.849 1203.92 571 1178.2 571C1152.48 571 1131.63 591.849 1131.63 617.568C1131.63 641.245 1149.3 660.795 1172.17 663.75C1201.09 668.058 1217.42 684.258 1208.56 722.633C1207.24 727.717 1206.54 733.048 1206.54 738.544C1206.54 741.798 1206.79 744.994 1207.26 748.116C1214.03 798.983 1192.29 824.839 1140.8 827.171C1107 828.471 1080 856.28 1080 890.395C1080 919.363 1099.47 943.784 1126.03 951.29C1154.62 960.29 1159.74 976.906 1151.59 997.567C1149.17 1003.2 1147.83 1009.41 1147.83 1015.93C1147.83 1041.65 1168.68 1062.49 1194.4 1062.49C1220.11 1062.49 1240.96 1041.65 1240.96 1015.93C1240.96 1006.97 1238.44 998.609 1234.06 991.51C1207.66 946.296 1232.66 827.449 1296.14 796.095C1317.94 786.106 1333.09 764.093 1333.09 738.544C1333.09 704.331 1305.93 676.461 1272 675.309C1231.95 673.699 1220.58 653.524 1224.28 624.327Z" fill="url(#paint4_linear_9_1403)"/>
<g filter="url(#filter7_f_9_1403)">
<path d="M1187.31 596.056C1187.31 611.291 1175.75 623.642 1161.49 623.642C1147.24 623.642 1135.68 611.291 1135.68 596.056C1144.03 585.426 1152.38 577.833 1164.28 572.519C1178.54 572.519 1187.31 580.82 1187.31 596.056Z" fill="#FF6189"/>
</g>
<g filter="url(#filter8_f_9_1403)">
<path d="M1128.09 880.019C1128.09 904.06 1166.39 948.859 1142.77 948.859C1119.14 948.859 1081.01 926.84 1083.54 892.926C1080 877.994 1091.64 829.402 1148.08 832.945C1171.7 832.945 1128.09 855.978 1128.09 880.019Z" fill="#4159FF" fill-opacity="0.2"/>
</g>
<g filter="url(#filter9_f_9_1403)">
<path d="M1236.41 1018.46C1236.41 1038.31 1220.54 1054.4 1200.98 1054.4C1181.41 1054.4 1162.51 1023.37 1162.51 1003.53C1188.07 1014.15 1197.94 1005.8 1197.94 967.587C1217.51 967.587 1236.41 998.609 1236.41 1018.46Z" fill="#00C2FF" fill-opacity="0.5"/>
</g>
<g filter="url(#filter10_f_9_1403)">
<path d="M1329.04 733.735C1329.04 757.776 1313.35 790.173 1282.72 790.173C1259.1 790.173 1245.01 772.963 1289.56 752.97C1298.67 743.605 1297.4 717.031 1278.17 686.408C1309.55 678.562 1329.04 709.693 1329.04 733.735Z" fill="#5F3AF9" fill-opacity="0.2"/>
</g>
<path fill-rule="evenodd" clip-rule="evenodd" d="M1210.56 0.00012207C1233.56 0.00012207 1252.84 15.9909 1257.87 37.4652C1264.19 61.2726 1280.58 63.9122 1294.33 56.056C1298.99 53.2464 1304.44 51.6298 1310.27 51.6298C1327.32 51.6298 1341.15 65.4537 1341.15 82.5063C1341.15 99.559 1327.32 113.383 1310.27 113.383C1307.92 113.383 1305.63 113.12 1303.43 112.622C1273.57 106.845 1206.2 156.598 1208.91 198.079C1208.99 199.194 1209.04 200.32 1209.04 201.457C1209.04 224.939 1190 243.976 1166.52 243.976C1143.04 243.976 1124 224.939 1124 201.457C1124 183.246 1135.45 167.709 1151.54 161.651C1188.22 146.665 1200.23 114.653 1172.45 78.7512C1165.88 70.4651 1161.96 59.9869 1161.96 48.5927C1161.96 21.7558 1183.72 0.00012207 1210.56 0.00012207Z" fill="url(#paint5_radial_9_1403)"/>
<defs>
<filter id="filter0_f_9_1403" x="149.432" y="564.291" width="172.427" height="214.178" filterUnits="userSpaceOnUse" color-interpolation-filters="sRGB">
<feFlood flood-opacity="0" result="BackgroundImageFix"/>
<feBlend mode="normal" in="SourceGraphic" in2="BackgroundImageFix" result="shape"/>
<feGaussianBlur stdDeviation="22" result="effect1_foregroundBlur_9_1403"/>
</filter>
<filter id="filter1_f_9_1403" x="0.111206" y="495.087" width="193.708" height="203.177" filterUnits="userSpaceOnUse" color-interpolation-filters="sRGB">
<feFlood flood-opacity="0" result="BackgroundImageFix"/>
<feBlend mode="normal" in="SourceGraphic" in2="BackgroundImageFix" result="shape"/>
<feGaussianBlur stdDeviation="22" result="effect1_foregroundBlur_9_1403"/>
</filter>
<filter id="filter2_f_9_1403" x="1175.57" y="1612.12" width="161.884" height="178.303" filterUnits="userSpaceOnUse" color-interpolation-filters="sRGB">
<feFlood flood-opacity="0" result="BackgroundImageFix"/>
<feBlend mode="normal" in="SourceGraphic" in2="BackgroundImageFix" result="shape"/>
<feGaussianBlur stdDeviation="22" result="effect1_foregroundBlur_9_1403"/>
</filter>
<filter id="filter3_f_9_1403" x="1032.36" y="1499.01" width="137.256" height="138.168" filterUnits="userSpaceOnUse" color-interpolation-filters="sRGB">
<feFlood flood-opacity="0" result="BackgroundImageFix"/>
<feBlend mode="normal" in="SourceGraphic" in2="BackgroundImageFix" result="shape"/>
<feGaussianBlur stdDeviation="22" result="effect1_foregroundBlur_9_1403"/>
</filter>
<filter id="filter4_f_9_1403" x="236.199" y="1682.6" width="190.925" height="188.682" filterUnits="userSpaceOnUse" color-interpolation-filters="sRGB">
<feFlood flood-opacity="0" result="BackgroundImageFix"/>
<feBlend mode="normal" in="SourceGraphic" in2="BackgroundImageFix" result="shape"/>
<feGaussianBlur stdDeviation="22" result="effect1_foregroundBlur_9_1403"/>
</filter>
<filter id="filter5_f_9_1403" x="137.739" y="1678.17" width="162.27" height="213.791" filterUnits="userSpaceOnUse" color-interpolation-filters="sRGB">
<feFlood flood-opacity="0" result="BackgroundImageFix"/>
<feBlend mode="normal" in="SourceGraphic" in2="BackgroundImageFix" result="shape"/>
<feGaussianBlur stdDeviation="22" result="effect1_foregroundBlur_9_1403"/>
</filter>
<filter id="filter6_f_9_1403" x="114.459" y="1580.18" width="170.683" height="160.123" filterUnits="userSpaceOnUse" color-interpolation-filters="sRGB">
<feFlood flood-opacity="0" result="BackgroundImageFix"/>
<feBlend mode="normal" in="SourceGraphic" in2="BackgroundImageFix" result="shape"/>
<feGaussianBlur stdDeviation="22" result="effect1_foregroundBlur_9_1403"/>
</filter>
<filter id="filter7_f_9_1403" x="1091.68" y="528.519" width="139.63" height="139.124" filterUnits="userSpaceOnUse" color-interpolation-filters="sRGB">
<feFlood flood-opacity="0" result="BackgroundImageFix"/>
<feBlend mode="normal" in="SourceGraphic" in2="BackgroundImageFix" result="shape"/>
<feGaussianBlur stdDeviation="22" result="effect1_foregroundBlur_9_1403"/>
</filter>
<filter id="filter8_f_9_1403" x="1038.96" y="788.761" width="160.131" height="204.098" filterUnits="userSpaceOnUse" color-interpolation-filters="sRGB">
<feFlood flood-opacity="0" result="BackgroundImageFix"/>
<feBlend mode="normal" in="SourceGraphic" in2="BackgroundImageFix" result="shape"/>
<feGaussianBlur stdDeviation="22" result="effect1_foregroundBlur_9_1403"/>
</filter>
<filter id="filter9_f_9_1403" x="1118.51" y="923.587" width="161.901" height="174.809" filterUnits="userSpaceOnUse" color-interpolation-filters="sRGB">
<feFlood flood-opacity="0" result="BackgroundImageFix"/>
<feBlend mode="normal" in="SourceGraphic" in2="BackgroundImageFix" result="shape"/>
<feGaussianBlur stdDeviation="22" result="effect1_foregroundBlur_9_1403"/>
</filter>
<filter id="filter10_f_9_1403" x="1216.51" y="641.172" width="156.532" height="193.002" filterUnits="userSpaceOnUse" color-interpolation-filters="sRGB">
<feFlood flood-opacity="0" result="BackgroundImageFix"/>
<feBlend mode="normal" in="SourceGraphic" in2="BackgroundImageFix" result="shape"/>
<feGaussianBlur stdDeviation="22" result="effect1_foregroundBlur_9_1403"/>
</filter>
<radialGradient id="paint0_radial_9_1403" cx="0" cy="0" r="1" gradientUnits="userSpaceOnUse" gradientTransform="translate(35.0001 554.778) rotate(30.5422) scale(295.621 314.551)">
<stop stop-color="#01AFF8"/>
<stop offset="0.213542" stop-color="#094BE1"/>
<stop offset="0.402558" stop-color="#2006C1"/>
<stop offset="0.654927" stop-color="#81259D"/>
<stop offset="1" stop-color="#FD6979"/>
</radialGradient>
<radialGradient id="paint1_radial_9_1403" cx="0" cy="0" r="1" gradientUnits="userSpaceOnUse" gradientTransform="translate(1091.41 1544.38) rotate(48.7605) scale(275.358 301.416)">
<stop stop-color="#01AFF8"/>
<stop offset="0.213542" stop-color="#094BE1"/>
<stop offset="0.402558" stop-color="#2006C1"/>
<stop offset="0.654927" stop-color="#81259D"/>
<stop offset="1" stop-color="#FD6979"/>
</radialGradient>
<radialGradient id="paint2_radial_9_1403" cx="0" cy="0" r="1" gradientUnits="userSpaceOnUse" gradientTransform="translate(101.844 1759.39) rotate(1.53258) scale(260.438 301.715)">
<stop stop-color="#01AFF8"/>
<stop offset="0.213542" stop-color="#094BE1"/>
<stop offset="0.402558" stop-color="#2006C1"/>
<stop offset="0.654927" stop-color="#81259D"/>
<stop offset="1" stop-color="#FD6979"/>
</radialGradient>
<linearGradient id="paint3_linear_9_1403" x1="376.747" y1="1773.21" x2="180.911" y2="1820.51" gradientUnits="userSpaceOnUse">
<stop stop-color="#FC6879"/>
<stop offset="1" stop-color="#0259EE" stop-opacity="0.33"/>
</linearGradient>
<linearGradient id="paint4_linear_9_1403" x1="1215.65" y1="1046.8" x2="998.042" y2="659.035" gradientUnits="userSpaceOnUse">
<stop stop-color="#01AFF8"/>
<stop offset="0.314521" stop-color="#094BE1"/>
<stop offset="0.522895" stop-color="#2006C1"/>
<stop offset="0.741158" stop-color="#81259D"/>
<stop offset="1" stop-color="#FD6979"/>
</linearGradient>
<radialGradient id="paint5_radial_9_1403" cx="0" cy="0" r="1" gradientUnits="userSpaceOnUse" gradientTransform="translate(1356.33 91.6175) rotate(-171.013) scale(215.491 246.029)">
<stop stop-color="#01AFF8"/>
<stop offset="0.213542" stop-color="#094BE1"/>
<stop offset="0.402558" stop-color="#2006C1"/>
<stop offset="0.654927" stop-color="#81259D"/>
<stop offset="1" stop-color="#FD6979"/>
</radialGradient>
</defs>
</svg>
