<svg width="100" height="118" viewBox="0 0 100 118" fill="none" xmlns="http://www.w3.org/2000/svg">
<path d="M27.7434 7.87496C37.459 5.30445 48.1019 7.79627 60.9904 5.7284C73.9004 3.73383 89.0085 -2.84632 94.7902 2.34489C100.572 7.53611 97.0534 24.4513 96.2373 36.8718C95.4472 49.245 97.4069 57.1493 98.7096 67.1572C100.012 77.165 100.684 89.2288 95.7701 98.6712C90.8347 108.04 80.3871 114.766 69.0162 116.986C57.6926 119.232 45.5664 116.976 33.0962 113.548C20.5786 110.093 7.79035 105.444 2.9301 96.2004C-1.90424 86.9098 1.18944 73.0252 2.13065 60.4884C3.09777 47.9041 1.79172 36.6632 5.54143 27.3234C9.26965 17.9102 18.0536 10.3981 27.7434 7.87496Z" fill="url(#paint0_radial_54_69)"/>
<defs>
<radialGradient id="paint0_radial_54_69" cx="0" cy="0" r="1" gradientUnits="userSpaceOnUse" gradientTransform="translate(55.0811 54.6734) rotate(28.6559) scale(56.8075 65.1272)">
<stop stop-color="#FF5A00" stop-opacity="0"/>
<stop offset="1" stop-color="#FF5A00"/>
</radialGradient>
</defs>
</svg>
