<svg width="1374" height="1806" viewBox="0 0 1374 1806" fill="none" xmlns="http://www.w3.org/2000/svg">
<path fill-rule="evenodd" clip-rule="evenodd" d="M77.0664 436.485C72.65 433.048 67.0981 431 61.0679 431C46.671 431 35 442.671 35 457.068C35 465.19 38.7145 472.444 44.5373 477.225C46.2192 478.625 47.8547 479.884 49.4496 481.113C62.9244 491.489 73.4932 499.627 84.5386 571.309C91.3774 621.566 134.465 660.297 186.599 660.297C243.488 660.297 289.605 614.179 289.605 557.29C289.605 500.402 243.488 454.284 186.599 454.284C183.779 454.284 180.985 454.398 178.222 454.62C105.374 459.804 95.0786 451.284 81.9432 440.413C80.393 439.131 78.8032 437.815 77.0664 436.485Z" fill="url(#paint0_radial_9_1536)"/>
<g filter="url(#filter0_f_9_1536)">
<path d="M287.519 533.672C295.617 580.24 247.412 616.178 227.284 616.178C207.156 616.178 204 571.207 204 546.327C217.667 530.129 224.753 516.462 240.444 501.277C264.741 470.907 287.519 508.792 287.519 533.672Z" fill="#FFC700" fill-opacity="0.66"/>
</g>
<g filter="url(#filter1_f_9_1536)">
<path d="M149.819 511.757C149.819 533.562 120.387 553.263 98.442 553.263C76.4972 553.263 85.5346 480.374 60.7321 480.374C24.7939 432.288 51.6211 425.708 98.442 458.103C120.387 458.103 149.819 489.952 149.819 511.757Z" fill="#FFC224" fill-opacity="0.3"/>
</g>
<path fill-rule="evenodd" clip-rule="evenodd" d="M1144.78 1580.96C1142.8 1589.79 1142.38 1599.12 1143.77 1608.61C1149.85 1650.16 1188.48 1678.91 1230.03 1672.83C1271.58 1666.74 1300.34 1628.12 1294.25 1586.56C1288.54 1547.6 1254.23 1519.89 1215.72 1521.61C1161.64 1523.14 1152.13 1498.67 1151.13 1471.45C1151.1 1469.87 1150.96 1468.28 1150.73 1466.68C1147.69 1445.91 1128.38 1431.53 1107.6 1434.57C1086.82 1437.62 1072.45 1456.93 1075.49 1477.71C1077.92 1494.27 1090.68 1506.76 1106.28 1509.61C1132.72 1515.16 1154.99 1528.64 1144.78 1580.96Z" fill="url(#paint1_radial_9_1536)"/>
<path fill-rule="evenodd" clip-rule="evenodd" d="M368.44 1555.76C372.328 1544.97 370.646 1532.47 362.905 1522.91C351.123 1508.34 329.769 1506.09 315.208 1517.87C313.278 1519.43 311.564 1521.16 310.07 1523.02C263.928 1578.16 221.938 1613.66 159.89 1650.01C158.254 1650.94 156.673 1652.01 155.165 1653.23C140.604 1665.01 138.351 1686.36 150.132 1700.92C156.451 1708.73 165.523 1713 174.824 1713.46C177.862 1713.62 180.669 1713.75 183.293 1713.87L183.293 1713.87C213.252 1715.27 219.285 1715.55 271.558 1737.41C290.126 1745.61 312.518 1743.38 329.384 1729.73C343.431 1718.37 350.532 1701.6 350.119 1684.83C348.977 1611.5 351.908 1603.12 364.262 1567.79C365.55 1564.11 366.941 1560.14 368.44 1555.76Z" fill="url(#paint2_radial_9_1536)"/>
<g filter="url(#filter2_f_9_1536)">
<path d="M244.669 1613.36C256.186 1627.6 228.737 1690.06 210.156 1705.1C191.574 1720.13 165.125 1714.62 153.607 1700.39C142.09 1686.15 139.356 1669.27 157.937 1654.24C198.568 1668.24 234.57 1616.98 244.669 1613.36Z" fill="#F3CE4B" fill-opacity="0.13"/>
</g>
<path fill-rule="evenodd" clip-rule="evenodd" d="M1224.28 523.327C1224.6 521.12 1224.77 518.863 1224.77 516.568C1224.77 490.849 1203.92 470 1178.2 470C1152.48 470 1131.63 490.849 1131.63 516.568C1131.63 540.245 1149.3 559.795 1172.17 562.75C1201.09 567.058 1217.42 583.258 1208.56 621.635C1207.24 626.718 1206.54 632.049 1206.54 637.544C1206.54 640.798 1206.79 643.996 1207.26 647.118C1214.03 697.985 1192.28 723.84 1140.79 726.171C1107 727.474 1080 755.282 1080 789.395C1080 818.363 1099.47 842.784 1126.03 850.29C1154.62 859.29 1159.74 875.907 1151.59 896.568C1149.17 902.201 1147.83 908.407 1147.83 914.926C1147.83 940.645 1168.68 961.494 1194.4 961.494C1220.11 961.494 1240.96 940.645 1240.96 914.926C1240.96 905.973 1238.44 897.609 1234.06 890.51C1207.66 845.297 1232.65 726.455 1296.14 695.097C1317.94 685.109 1333.09 663.095 1333.09 637.544C1333.09 603.342 1305.95 575.479 1272.03 574.31C1231.96 572.71 1220.58 552.531 1224.28 523.327Z" fill="url(#paint3_linear_9_1536)"/>
<g filter="url(#filter3_f_9_1536)">
<path d="M1128.09 779.019C1128.09 803.06 1166.39 847.859 1142.77 847.859C1119.14 847.859 1081.01 825.84 1083.54 791.926C1080 776.994 1091.64 728.402 1148.08 731.945C1171.7 731.945 1128.09 754.978 1128.09 779.019Z" fill="#F815AA" fill-opacity="0.2"/>
</g>
<g filter="url(#filter4_f_9_1536)">
<path d="M1236.41 917.457C1236.41 937.305 1220.54 953.395 1200.98 953.395C1181.41 953.395 1162.51 922.373 1162.51 902.525C1188.07 913.154 1197.94 904.802 1197.94 866.586C1217.51 866.586 1236.41 897.609 1236.41 917.457Z" fill="#F08B42" fill-opacity="0.5"/>
</g>
<g filter="url(#filter5_f_9_1536)">
<path d="M1329.04 632.735C1329.04 656.776 1313.35 689.173 1282.72 689.173C1259.1 689.173 1245.01 671.963 1289.56 651.969C1298.67 642.605 1297.4 616.031 1278.17 585.408C1309.55 577.562 1329.04 608.693 1329.04 632.735Z" fill="#F9AC3A" fill-opacity="0.2"/>
</g>
<path fill-rule="evenodd" clip-rule="evenodd" d="M1211.56 0C1234.56 0 1253.84 15.99 1258.87 37.4635C1265.19 61.2781 1281.58 63.9135 1295.34 56.05C1299.99 53.2442 1305.44 51.6299 1311.27 51.6299C1328.32 51.6299 1342.15 65.4538 1342.15 82.5064C1342.15 99.5591 1328.32 113.383 1311.27 113.383C1308.92 113.383 1306.63 113.12 1304.42 112.621C1274.56 106.852 1207.2 156.602 1209.9 198.08C1209.99 199.194 1210.04 200.32 1210.04 201.457C1210.04 224.939 1191 243.976 1167.52 243.976C1144.04 243.976 1125 224.939 1125 201.457C1125 183.249 1136.45 167.714 1152.53 161.654C1189.22 146.67 1201.23 114.659 1173.46 78.7568C1166.89 70.4698 1162.96 59.9894 1162.96 48.5926C1162.96 21.7557 1184.72 0 1211.56 0Z" fill="url(#paint4_linear_9_1536)"/>
<defs>
<filter id="filter0_f_9_1536" x="160" y="446" width="172.427" height="214.178" filterUnits="userSpaceOnUse" color-interpolation-filters="sRGB">
<feFlood flood-opacity="0" result="BackgroundImageFix"/>
<feBlend mode="normal" in="SourceGraphic" in2="BackgroundImageFix" result="shape"/>
<feGaussianBlur stdDeviation="22" result="effect1_foregroundBlur_9_1536"/>
</filter>
<filter id="filter1_f_9_1536" x="0.111084" y="394.086" width="193.708" height="203.177" filterUnits="userSpaceOnUse" color-interpolation-filters="sRGB">
<feFlood flood-opacity="0" result="BackgroundImageFix"/>
<feBlend mode="normal" in="SourceGraphic" in2="BackgroundImageFix" result="shape"/>
<feGaussianBlur stdDeviation="22" result="effect1_foregroundBlur_9_1536"/>
</filter>
<filter id="filter2_f_9_1536" x="100.477" y="1569.36" width="190.925" height="188.682" filterUnits="userSpaceOnUse" color-interpolation-filters="sRGB">
<feFlood flood-opacity="0" result="BackgroundImageFix"/>
<feBlend mode="normal" in="SourceGraphic" in2="BackgroundImageFix" result="shape"/>
<feGaussianBlur stdDeviation="22" result="effect1_foregroundBlur_9_1536"/>
</filter>
<filter id="filter3_f_9_1536" x="1038.96" y="687.761" width="160.131" height="204.098" filterUnits="userSpaceOnUse" color-interpolation-filters="sRGB">
<feFlood flood-opacity="0" result="BackgroundImageFix"/>
<feBlend mode="normal" in="SourceGraphic" in2="BackgroundImageFix" result="shape"/>
<feGaussianBlur stdDeviation="22" result="effect1_foregroundBlur_9_1536"/>
</filter>
<filter id="filter4_f_9_1536" x="1118.51" y="822.586" width="161.901" height="174.809" filterUnits="userSpaceOnUse" color-interpolation-filters="sRGB">
<feFlood flood-opacity="0" result="BackgroundImageFix"/>
<feBlend mode="normal" in="SourceGraphic" in2="BackgroundImageFix" result="shape"/>
<feGaussianBlur stdDeviation="22" result="effect1_foregroundBlur_9_1536"/>
</filter>
<filter id="filter5_f_9_1536" x="1216.51" y="540.171" width="156.532" height="193.001" filterUnits="userSpaceOnUse" color-interpolation-filters="sRGB">
<feFlood flood-opacity="0" result="BackgroundImageFix"/>
<feBlend mode="normal" in="SourceGraphic" in2="BackgroundImageFix" result="shape"/>
<feGaussianBlur stdDeviation="22" result="effect1_foregroundBlur_9_1536"/>
</filter>
<radialGradient id="paint0_radial_9_1536" cx="0" cy="0" r="1" gradientUnits="userSpaceOnUse" gradientTransform="translate(263.302 654.536) rotate(-132.226) scale(282.408 337.299)">
<stop stop-color="#FFBD02"/>
<stop offset="0.213542" stop-color="#FF6002"/>
<stop offset="0.484375" stop-color="#FF3001"/>
<stop offset="0.817708" stop-color="#FF6401"/>
<stop offset="1" stop-color="#FF7101"/>
</radialGradient>
<radialGradient id="paint1_radial_9_1536" cx="0" cy="0" r="1" gradientUnits="userSpaceOnUse" gradientTransform="translate(1091.41 1443.38) rotate(48.7605) scale(275.358 301.416)">
<stop stop-color="#FFBD02"/>
<stop offset="0.213542" stop-color="#FF6002"/>
<stop offset="0.484375" stop-color="#FF3001"/>
<stop offset="0.817708" stop-color="#FF6401"/>
<stop offset="1" stop-color="#FF7101"/>
</radialGradient>
<radialGradient id="paint2_radial_9_1536" cx="0" cy="0" r="1" gradientUnits="userSpaceOnUse" gradientTransform="translate(354 1701) rotate(-146.626) scale(301.762 349.589)">
<stop stop-color="#FFBD02"/>
<stop offset="0.213542" stop-color="#FF6002"/>
<stop offset="0.484375" stop-color="#FF3001"/>
<stop offset="0.817708" stop-color="#FF6401"/>
<stop offset="1" stop-color="#FF7101"/>
</radialGradient>
<linearGradient id="paint3_linear_9_1536" x1="1100" y1="927" x2="1207" y2="415" gradientUnits="userSpaceOnUse">
<stop stop-color="#FFBD02"/>
<stop offset="0.280655" stop-color="#FF6002"/>
<stop offset="0.543965" stop-color="#FF3001"/>
<stop offset="0.917425" stop-color="#FF6401"/>
<stop offset="1" stop-color="#FF7101"/>
</linearGradient>
<linearGradient id="paint4_linear_9_1536" x1="1147" y1="244" x2="1360.33" y2="72.8451" gradientUnits="userSpaceOnUse">
<stop stop-color="#FFBD02"/>
<stop offset="0.213542" stop-color="#FF6002"/>
<stop offset="0.484375" stop-color="#FF3001"/>
<stop offset="0.817708" stop-color="#FF6401"/>
<stop offset="1" stop-color="#FF7101"/>
</linearGradient>
</defs>
</svg>
