<svg width="879" height="710" viewBox="0 0 879 710" fill="none" xmlns="http://www.w3.org/2000/svg">
<g filter="url(#filter0_d_31_5)">
<path d="M636.959 107.966C710.759 159.666 782.459 224.266 809.059 306.866C835.759 389.566 817.359 490.266 756.259 538.466C695.259 586.766 591.559 582.566 509.159 593.966C426.759 605.366 365.659 632.266 318.559 616.866C271.359 601.466 238.059 543.666 183.159 482.166C128.159 420.666 51.359 355.366 58.459 302.966C65.459 250.566 156.259 211.066 228.959 159.266C301.659 107.366 356.359 43.1658 421.659 30.4658C487.059 17.6658 563.059 56.3658 636.959 107.966Z" fill="url(#paint0_radial_31_5)" shape-rendering="crispEdges"/>
</g>
<defs>
<filter id="filter0_d_31_5" x="0" y="0" width="878.977" height="709.508" filterUnits="userSpaceOnUse" color-interpolation-filters="sRGB">
<feFlood flood-opacity="0" result="BackgroundImageFix"/>
<feColorMatrix in="SourceAlpha" type="matrix" values="0 0 0 0 0 0 0 0 0 0 0 0 0 0 0 0 0 0 127 0" result="hardAlpha"/>
<feOffset dy="30"/>
<feGaussianBlur stdDeviation="29"/>
<feComposite in2="hardAlpha" operator="out"/>
<feColorMatrix type="matrix" values="0 0 0 0 0 0 0 0 0 0 0 0 0 0 0 0 0 0 0.25 0"/>
<feBlend mode="normal" in2="BackgroundImageFix" result="effect1_dropShadow_31_5"/>
<feBlend mode="normal" in="SourceGraphic" in2="effect1_dropShadow_31_5" result="shape"/>
</filter>
<radialGradient id="paint0_radial_31_5" cx="0" cy="0" r="1" gradientUnits="userSpaceOnUse" gradientTransform="translate(439.489 324.754) rotate(90) scale(296.754 381.489)">
<stop stop-color="#FF5A00" stop-opacity="0"/>
<stop offset="1" stop-color="#FF5A00"/>
</radialGradient>
</defs>
</svg>
