<svg width="1374" height="1919" viewBox="0 0 1374 1919" fill="none" xmlns="http://www.w3.org/2000/svg">
<path fill-rule="evenodd" clip-rule="evenodd" d="M77.0812 537.497C72.6624 534.053 67.1048 532 61.0679 532C46.671 532 35 543.671 35 558.068C35 566.182 38.7066 573.429 44.5188 578.21C46.2072 579.616 47.8489 580.881 49.4496 582.113C62.9247 592.489 73.4935 600.628 84.5392 672.314C91.38 722.569 134.467 761.297 186.599 761.297C243.488 761.297 289.605 715.179 289.605 658.291C289.605 601.402 243.488 555.284 186.599 555.284C183.764 555.284 180.955 555.399 178.178 555.624C105.37 560.801 95.0759 552.282 81.9432 541.414C80.3974 540.135 78.8123 538.823 77.0812 537.497Z" fill="url(#paint0_radial_9_1468)"/>
<g filter="url(#filter0_f_9_1468)">
<path d="M276.951 651.963C285.049 698.531 236.844 734.47 216.716 734.47C196.588 734.47 193.432 689.498 193.432 664.618C207.099 648.421 214.185 634.754 229.877 619.569C254.173 589.198 276.951 627.083 276.951 651.963Z" fill="#F3CE4B" fill-opacity="0.13"/>
</g>
<g filter="url(#filter1_f_9_1468)">
<path d="M149.819 612.758C149.819 634.563 120.387 654.264 98.442 654.264C76.4972 654.264 85.5346 581.375 60.7321 581.375C24.7939 533.288 51.6211 526.708 98.442 559.103C120.387 559.103 149.819 590.953 149.819 612.758Z" fill="#2454FF" fill-opacity="0.3"/>
</g>
<path fill-rule="evenodd" clip-rule="evenodd" d="M1168.81 1664.96C1166.82 1673.79 1166.4 1683.12 1167.79 1692.61C1173.88 1734.16 1212.5 1762.92 1254.05 1756.83C1295.61 1750.74 1324.36 1712.12 1318.27 1670.56C1312.56 1631.6 1278.24 1603.89 1239.73 1605.61C1185.66 1607.14 1176.15 1582.67 1175.15 1555.45C1175.12 1553.87 1174.99 1552.28 1174.75 1550.69C1171.71 1529.91 1152.4 1515.53 1131.62 1518.58C1110.84 1521.62 1096.47 1540.93 1099.51 1561.71C1101.94 1578.27 1114.7 1590.76 1130.3 1593.61C1156.74 1599.16 1179.01 1612.63 1168.81 1664.96Z" fill="url(#paint1_radial_9_1468)"/>
<g filter="url(#filter2_f_9_1468)">
<ellipse cx="1256.51" cy="1701.27" rx="36.9422" ry="45.1515" fill="#F3CE4B" fill-opacity="0.13"/>
</g>
<g filter="url(#filter3_f_9_1468)">
<ellipse cx="1123.63" cy="1552.08" rx="24.6281" ry="25.0842" fill="#00F0FF" fill-opacity="0.64"/>
</g>
<path fill-rule="evenodd" clip-rule="evenodd" d="M215.587 1656.77C211.699 1645.98 213.38 1633.47 221.122 1623.91C232.903 1609.35 254.257 1607.09 268.818 1618.87C270.745 1620.43 272.457 1622.16 273.949 1624.02C320.096 1679.16 362.09 1714.67 424.146 1751.02C425.778 1751.94 427.356 1753.01 428.862 1754.23C443.422 1766.01 445.676 1787.36 433.894 1801.92C427.557 1809.75 418.45 1814.03 409.121 1814.47C406.115 1814.62 403.335 1814.75 400.736 1814.87L400.734 1814.87L400.734 1814.87C370.774 1816.27 364.742 1816.55 312.468 1838.41C293.9 1846.61 271.508 1844.38 254.642 1830.73C240.594 1819.37 233.492 1802.6 233.907 1785.83C235.05 1712.5 232.119 1704.12 219.764 1668.8C218.476 1665.11 217.086 1661.14 215.587 1656.77Z" fill="url(#paint2_radial_9_1468)"/>
<path fill-rule="evenodd" clip-rule="evenodd" d="M215.587 1656.77C211.699 1645.98 213.38 1633.47 221.122 1623.91C232.903 1609.35 254.257 1607.09 268.818 1618.87C270.745 1620.43 272.457 1622.16 273.949 1624.02C320.096 1679.16 362.09 1714.67 424.146 1751.02C425.778 1751.94 427.356 1753.01 428.862 1754.23C443.422 1766.01 445.676 1787.36 433.894 1801.92C427.557 1809.75 418.45 1814.03 409.121 1814.47C406.115 1814.62 403.335 1814.75 400.736 1814.87L400.734 1814.87L400.734 1814.87C370.774 1816.27 364.742 1816.55 312.468 1838.41C293.9 1846.61 271.508 1844.38 254.642 1830.73C240.594 1819.37 233.492 1802.6 233.907 1785.83C235.05 1712.5 232.119 1704.12 219.764 1668.8C218.476 1665.11 217.086 1661.14 215.587 1656.77Z" fill="url(#paint3_linear_9_1468)" fill-opacity="0.5"/>
<g filter="url(#filter4_f_9_1468)">
<path d="M339.358 1714.36C327.84 1728.6 355.29 1791.06 373.871 1806.1C392.452 1821.13 418.902 1815.62 430.419 1801.39C441.937 1787.15 444.671 1770.27 426.089 1755.24C385.458 1769.24 349.457 1717.98 339.358 1714.36Z" fill="#F3CE4B" fill-opacity="0.13"/>
</g>
<g filter="url(#filter5_f_9_1468)">
<path d="M271.601 1709.93C253.619 1713.39 234.32 1778.83 238.827 1802.3C243.335 1825.77 267.102 1838.62 285.084 1835.17C303.066 1831.71 316.042 1820.57 311.534 1797.1C271.448 1781.61 276.99 1719.21 271.601 1709.93Z" fill="#03CAFC" fill-opacity="0.5"/>
</g>
<g filter="url(#filter6_f_9_1468)">
<path d="M292.252 1684.06C306.707 1672.82 288.664 1645.83 273.991 1626.97C259.318 1608.1 247.378 1608.54 232.923 1619.78C218.469 1631.02 207.039 1641.33 221.712 1660.19C264.464 1655.8 283.241 1678.25 292.252 1684.06Z" fill="#7AB8E9"/>
</g>
<path fill-rule="evenodd" clip-rule="evenodd" d="M1224.28 624.328C1224.6 622.121 1224.77 619.864 1224.77 617.568C1224.77 591.85 1203.92 571 1178.2 571C1152.48 571 1131.63 591.85 1131.63 617.568C1131.63 641.245 1149.3 660.795 1172.17 663.75C1201.09 668.059 1217.42 684.258 1208.56 722.633C1207.24 727.717 1206.54 733.049 1206.54 738.544C1206.54 741.798 1206.79 744.995 1207.26 748.116C1214.03 798.983 1192.29 824.839 1140.8 827.172C1107 828.472 1080 856.281 1080 890.396C1080 919.363 1099.47 943.784 1126.03 951.29C1154.62 960.29 1159.74 976.906 1151.59 997.567C1149.17 1003.2 1147.83 1009.41 1147.83 1015.93C1147.83 1041.65 1168.68 1062.49 1194.4 1062.49C1220.11 1062.49 1240.96 1041.65 1240.96 1015.93C1240.96 1006.97 1238.44 998.61 1234.06 991.511C1207.66 946.298 1232.66 827.449 1296.14 796.095C1317.94 786.106 1333.09 764.094 1333.09 738.544C1333.09 704.331 1305.93 676.461 1272 675.309C1231.95 673.699 1220.58 653.524 1224.28 624.328Z" fill="url(#paint4_linear_9_1468)"/>
<g filter="url(#filter7_f_9_1468)">
<path d="M1187.31 596.056C1187.31 611.292 1175.75 623.643 1161.49 623.643C1147.24 623.643 1135.68 611.292 1135.68 596.056C1144.03 585.426 1152.38 577.834 1164.28 572.519C1178.53 572.519 1187.31 580.821 1187.31 596.056Z" fill="#F3CE4B" fill-opacity="0.13"/>
</g>
<g filter="url(#filter8_f_9_1468)">
<path d="M1128.09 880.019C1128.09 904.061 1166.39 948.859 1142.77 948.859C1119.14 948.859 1081.01 926.84 1083.54 892.927C1080 877.995 1091.64 829.402 1148.08 832.945C1171.7 832.945 1128.09 855.978 1128.09 880.019Z" fill="#4159FF" fill-opacity="0.2"/>
</g>
<g filter="url(#filter9_f_9_1468)">
<path d="M1236.41 1018.46C1236.41 1038.31 1220.54 1054.4 1200.98 1054.4C1181.41 1054.4 1162.51 1023.37 1162.51 1003.53C1188.07 1014.16 1197.94 1005.8 1197.94 967.587C1217.51 967.587 1236.41 998.609 1236.41 1018.46Z" fill="#00F0FF" fill-opacity="0.64"/>
</g>
<g filter="url(#filter10_f_9_1468)">
<path d="M1329.04 733.735C1329.04 757.777 1313.35 790.174 1282.72 790.174C1259.1 790.174 1245.01 772.964 1289.56 752.97C1298.67 743.606 1297.4 717.032 1278.17 686.408C1309.55 678.562 1329.04 709.694 1329.04 733.735Z" fill="#5F3AF9" fill-opacity="0.2"/>
</g>
<path fill-rule="evenodd" clip-rule="evenodd" d="M1210.56 0.000488281C1233.56 0.000488281 1252.84 15.9913 1257.87 37.4655C1264.19 61.2729 1280.58 63.9126 1294.33 56.0564C1298.99 53.2468 1304.44 51.6301 1310.27 51.6301C1327.32 51.6301 1341.15 65.4541 1341.15 82.5067C1341.15 99.5594 1327.32 113.383 1310.27 113.383C1307.92 113.383 1305.63 113.12 1303.43 112.623C1273.57 106.845 1206.2 156.599 1208.9 198.08C1208.99 199.194 1209.04 200.321 1209.04 201.457C1209.04 224.94 1190 243.976 1166.52 243.976C1143.04 243.976 1124 224.94 1124 201.457C1124 183.246 1135.45 167.709 1151.54 161.651C1188.22 146.665 1200.23 114.653 1172.45 78.7516C1165.88 70.4655 1161.96 59.9873 1161.96 48.5931C1161.96 21.7561 1183.72 0.000488281 1210.56 0.000488281Z" fill="url(#paint5_radial_9_1468)"/>
<defs>
<filter id="filter0_f_9_1468" x="149.432" y="564.292" width="172.427" height="214.178" filterUnits="userSpaceOnUse" color-interpolation-filters="sRGB">
<feFlood flood-opacity="0" result="BackgroundImageFix"/>
<feBlend mode="normal" in="SourceGraphic" in2="BackgroundImageFix" result="shape"/>
<feGaussianBlur stdDeviation="22" result="effect1_foregroundBlur_9_1468"/>
</filter>
<filter id="filter1_f_9_1468" x="0.111084" y="495.087" width="193.708" height="203.177" filterUnits="userSpaceOnUse" color-interpolation-filters="sRGB">
<feFlood flood-opacity="0" result="BackgroundImageFix"/>
<feBlend mode="normal" in="SourceGraphic" in2="BackgroundImageFix" result="shape"/>
<feGaussianBlur stdDeviation="22" result="effect1_foregroundBlur_9_1468"/>
</filter>
<filter id="filter2_f_9_1468" x="1175.57" y="1612.12" width="161.884" height="178.303" filterUnits="userSpaceOnUse" color-interpolation-filters="sRGB">
<feFlood flood-opacity="0" result="BackgroundImageFix"/>
<feBlend mode="normal" in="SourceGraphic" in2="BackgroundImageFix" result="shape"/>
<feGaussianBlur stdDeviation="22" result="effect1_foregroundBlur_9_1468"/>
</filter>
<filter id="filter3_f_9_1468" x="1055" y="1483" width="137.256" height="138.168" filterUnits="userSpaceOnUse" color-interpolation-filters="sRGB">
<feFlood flood-opacity="0" result="BackgroundImageFix"/>
<feBlend mode="normal" in="SourceGraphic" in2="BackgroundImageFix" result="shape"/>
<feGaussianBlur stdDeviation="22" result="effect1_foregroundBlur_9_1468"/>
</filter>
<filter id="filter4_f_9_1468" x="292.624" y="1670.36" width="190.925" height="188.682" filterUnits="userSpaceOnUse" color-interpolation-filters="sRGB">
<feFlood flood-opacity="0" result="BackgroundImageFix"/>
<feBlend mode="normal" in="SourceGraphic" in2="BackgroundImageFix" result="shape"/>
<feGaussianBlur stdDeviation="22" result="effect1_foregroundBlur_9_1468"/>
</filter>
<filter id="filter5_f_9_1468" x="194.164" y="1665.93" width="162.27" height="213.791" filterUnits="userSpaceOnUse" color-interpolation-filters="sRGB">
<feFlood flood-opacity="0" result="BackgroundImageFix"/>
<feBlend mode="normal" in="SourceGraphic" in2="BackgroundImageFix" result="shape"/>
<feGaussianBlur stdDeviation="22" result="effect1_foregroundBlur_9_1468"/>
</filter>
<filter id="filter6_f_9_1468" x="170.884" y="1567.94" width="170.683" height="160.123" filterUnits="userSpaceOnUse" color-interpolation-filters="sRGB">
<feFlood flood-opacity="0" result="BackgroundImageFix"/>
<feBlend mode="normal" in="SourceGraphic" in2="BackgroundImageFix" result="shape"/>
<feGaussianBlur stdDeviation="22" result="effect1_foregroundBlur_9_1468"/>
</filter>
<filter id="filter7_f_9_1468" x="1091.68" y="528.519" width="139.63" height="139.124" filterUnits="userSpaceOnUse" color-interpolation-filters="sRGB">
<feFlood flood-opacity="0" result="BackgroundImageFix"/>
<feBlend mode="normal" in="SourceGraphic" in2="BackgroundImageFix" result="shape"/>
<feGaussianBlur stdDeviation="22" result="effect1_foregroundBlur_9_1468"/>
</filter>
<filter id="filter8_f_9_1468" x="1038.96" y="788.761" width="160.131" height="204.098" filterUnits="userSpaceOnUse" color-interpolation-filters="sRGB">
<feFlood flood-opacity="0" result="BackgroundImageFix"/>
<feBlend mode="normal" in="SourceGraphic" in2="BackgroundImageFix" result="shape"/>
<feGaussianBlur stdDeviation="22" result="effect1_foregroundBlur_9_1468"/>
</filter>
<filter id="filter9_f_9_1468" x="1118.51" y="923.587" width="161.901" height="174.809" filterUnits="userSpaceOnUse" color-interpolation-filters="sRGB">
<feFlood flood-opacity="0" result="BackgroundImageFix"/>
<feBlend mode="normal" in="SourceGraphic" in2="BackgroundImageFix" result="shape"/>
<feGaussianBlur stdDeviation="22" result="effect1_foregroundBlur_9_1468"/>
</filter>
<filter id="filter10_f_9_1468" x="1216.51" y="641.172" width="156.532" height="193.001" filterUnits="userSpaceOnUse" color-interpolation-filters="sRGB">
<feFlood flood-opacity="0" result="BackgroundImageFix"/>
<feBlend mode="normal" in="SourceGraphic" in2="BackgroundImageFix" result="shape"/>
<feGaussianBlur stdDeviation="22" result="effect1_foregroundBlur_9_1468"/>
</filter>
<radialGradient id="paint0_radial_9_1468" cx="0" cy="0" r="1" gradientUnits="userSpaceOnUse" gradientTransform="translate(263.302 755.536) rotate(-132.226) scale(282.408 337.299)">
<stop stop-color="#01D3FD"/>
<stop offset="0.213542" stop-color="#04A4F9"/>
<stop offset="0.4375" stop-color="#1A86F2"/>
<stop offset="0.661458" stop-color="#4499ED"/>
<stop offset="1" stop-color="#7AB8E9"/>
</radialGradient>
<radialGradient id="paint1_radial_9_1468" cx="0" cy="0" r="1" gradientUnits="userSpaceOnUse" gradientTransform="translate(1115.44 1527.38) rotate(48.7605) scale(275.358 301.416)">
<stop stop-color="#01D3FD"/>
<stop offset="0.213542" stop-color="#04A4F9"/>
<stop offset="0.4375" stop-color="#1A86F2"/>
<stop offset="0.661458" stop-color="#4499ED"/>
<stop offset="1" stop-color="#7AB8E9"/>
</radialGradient>
<radialGradient id="paint2_radial_9_1468" cx="0" cy="0" r="1" gradientUnits="userSpaceOnUse" gradientTransform="translate(158.269 1747.15) rotate(1.53258) scale(260.438 301.715)">
<stop stop-color="#00B4FF"/>
<stop offset="0.213542" stop-color="#09C7E1"/>
<stop offset="0.4375" stop-color="#0672C1"/>
<stop offset="0.661458" stop-color="#25809D"/>
<stop offset="1" stop-color="#69F4FD"/>
</radialGradient>
<linearGradient id="paint3_linear_9_1468" x1="379.027" y1="1653" x2="335.026" y2="1853" gradientUnits="userSpaceOnUse">
<stop stop-color="#68F3FC"/>
<stop offset="1" stop-color="#0259EE" stop-opacity="0.33"/>
</linearGradient>
<linearGradient id="paint4_linear_9_1468" x1="1117" y1="1102" x2="1137.31" y2="573.784" gradientUnits="userSpaceOnUse">
<stop stop-color="#01D3FD"/>
<stop offset="0.213542" stop-color="#04A4F9"/>
<stop offset="0.4375" stop-color="#1A86F2"/>
<stop offset="0.661458" stop-color="#4499ED"/>
<stop offset="1" stop-color="#7AB8E9"/>
</linearGradient>
<radialGradient id="paint5_radial_9_1468" cx="0" cy="0" r="1" gradientUnits="userSpaceOnUse" gradientTransform="translate(1318.71 237.847) rotate(-126.035) scale(275.161 314.155)">
<stop stop-color="#01D3FD"/>
<stop offset="0.213542" stop-color="#04A4F9"/>
<stop offset="0.4375" stop-color="#1A86F2"/>
<stop offset="0.661458" stop-color="#4499ED"/>
<stop offset="1" stop-color="#7AB8E9"/>
</radialGradient>
</defs>
</svg>
