<svg width="1440" height="784" viewBox="0 0 1440 784" fill="none" xmlns="http://www.w3.org/2000/svg">
<path opacity="0.5" d="M1205.92 67.2135C1061.88 14.5949 996.283 135.963 956.772 277.304C915.727 424.597 750.394 217.772 560.703 474.527C379.643 719.569 -30.4281 461.661 1.79452 783.71H1439.54V0C1439.54 0 1399.26 137.884 1205.92 67.2135Z" fill="url(#paint0_linear_42_28)"/>
<path d="M69.7666 783.775C69.7666 783.775 35.626 604.603 267.514 647.043C390.458 669.512 343.659 498.789 518.965 555.633C733.59 625.343 637.498 353.8 827.765 363.594C906.211 367.627 963.943 404.306 988.302 338.629C1024.55 241.074 1046.61 184.038 1194.1 222.062C1328.37 256.629 1439.99 74 1439.99 74V783.775H69.7666Z" fill="url(#paint1_linear_42_28)"/>
<path d="M0 783.671C0 783.671 45.8723 558.952 417.219 646.727C894.873 759.663 556.535 288.52 1000.21 432.571C1299.47 529.949 1191.22 220.912 1440 242.039V783.671H0Z" fill="url(#paint2_linear_42_28)"/>
<defs>
<linearGradient id="paint0_linear_42_28" x1="614.556" y1="184.729" x2="950.716" y2="839.31" gradientUnits="userSpaceOnUse">
<stop stop-color="#FF7800"/>
<stop offset="0.9032" stop-color="#FFA554"/>
</linearGradient>
<linearGradient id="paint1_linear_42_28" x1="727.087" y1="321.956" x2="839.133" y2="750.122" gradientUnits="userSpaceOnUse">
<stop stop-color="#FF7800"/>
<stop offset="0.9032" stop-color="#FFA554"/>
</linearGradient>
<linearGradient id="paint2_linear_42_28" x1="720" y1="241" x2="720" y2="783.671" gradientUnits="userSpaceOnUse">
<stop stop-color="#ED7436"/>
<stop offset="1" stop-color="#9510AB"/>
</linearGradient>
</defs>
</svg>
